<?xml version="1.0" standalone="no"?>
<!DOCTYPE svg PUBLIC "-//W3C//DTD SVG 20010904//EN"
 "http://www.w3.org/TR/2001/REC-SVG-20010904/DTD/svg10.dtd">
<svg version="1.0" xmlns="http://www.w3.org/2000/svg"
 width="512.000000pt" height="512.000000pt" viewBox="0 0 512.000000 512.000000"
 preserveAspectRatio="xMidYMid meet">

<g transform="translate(0.000000,512.000000) scale(0.100000,-0.100000)"
fill="#67ad45" stroke="none">
<path d="M2298 3477 l-3 -1643 -573 618 c-316 340 -577 618 -581 618 -8 0
-364 -327 -369 -339 -2 -5 1033 -1127 1363 -1476 142 -150 195 -186 319 -217
79 -20 96 -21 166 -10 92 13 187 54 252 108 57 48 1480 1584 1476 1593 -4 10
-362 341 -368 341 -3 0 -265 -279 -581 -621 l-574 -620 -3 1645 -2 1646 -260
0 -260 0 -2 -1643z"/>
<path d="M260 255 l0 -255 2300 0 2300 0 0 255 0 255 -2300 0 -2300 0 0 -255z"/>
</g>
</svg>
